<?xml version="1.0" encoding="UTF-8" standalone="no"?>
<!DOCTYPE svg PUBLIC "-//W3C//DTD SVG 1.1//EN" "http://www.w3.org/Graphics/SVG/1.1/DTD/svg11.dtd">
<svg width="100%" height="100%" viewBox="0 0 1488 177" version="1.1" xmlns="http://www.w3.org/2000/svg" xmlns:xlink="http://www.w3.org/1999/xlink" xml:space="preserve" xmlns:serif="http://www.serif.com/" style="fill-rule:evenodd;clip-rule:evenodd;stroke-linejoin:round;stroke-miterlimit:2;">
    <g transform="matrix(1,0,0,1,-7,0)">
        <path d="M1,284L1,61.64C1,11.559 235.312,-16.487 291.387,61.64C347.462,139.766 543.723,61.64 565.753,61.64C587.782,61.64 723.964,-0.461 802.068,61.64C880.172,123.741 944.258,101.705 1032.38,61.64C1120.49,21.575 1240.65,125.744 1288.72,61.64C1336.78,-2.464 1501,61.64 1501,61.64L1501,284L1,284Z" style="fill:rgb(99,126,125);fill-rule:nonzero;"/>
    </g>
    <g transform="matrix(1,0,0,1,-7,0)">
        <path d="M0,304L0,96.409C0,49.655 234.312,23.472 290.387,96.409C346.462,169.347 542.723,96.409 564.753,96.409C586.782,96.409 722.964,38.433 801.068,96.409C879.172,154.385 943.258,133.813 1031.38,96.409C1119.49,59.006 1239.65,156.255 1287.72,96.409C1335.78,36.563 1500,96.409 1500,96.409L1500,304L0,304Z" style="fill:rgb(124,167,164);fill-rule:nonzero;"/>
    </g>
    <g transform="matrix(1,0,0,1,-7,0)">
        <path d="M1,330L1,135.537C1,91.74 235.312,67.213 291.387,135.537C347.462,203.862 543.723,135.537 565.753,135.537C587.782,135.537 723.964,81.228 802.068,135.537C880.172,189.847 944.258,170.576 1032.38,135.537C1120.49,100.499 1240.65,191.599 1288.72,135.537C1336.78,79.476 1501,135.537 1501,135.537L1501,330L1,330Z" style="fill:rgb(201,248,245);fill-rule:nonzero;"/>
    </g>
</svg>
