<?xml version="1.0" encoding="UTF-8" standalone="no"?>
<!DOCTYPE svg PUBLIC "-//W3C//DTD SVG 1.1//EN" "http://www.w3.org/Graphics/SVG/1.1/DTD/svg11.dtd">
<svg width="100%" height="100%" viewBox="0 0 1500 714" version="1.1" xmlns="http://www.w3.org/2000/svg" xmlns:xlink="http://www.w3.org/1999/xlink" xml:space="preserve" xmlns:serif="http://www.serif.com/" style="fill-rule:evenodd;clip-rule:evenodd;">
    <g transform="matrix(1,0,0,0.856014,0,-7.97457)">
        <path d="M-13.641,139.178C-195.903,108.73 -430.356,231.461 -524.8,296.632L-569.345,349.902L23.584,691.801C110.784,715.764 313.078,759.677 424.657,743.624C564.129,723.559 632.402,834.704 742.483,833.58C852.563,832.455 907.332,763.546 1086.79,730.645C1266.24,697.744 1362.62,817.923 1666.58,706.08C1909.75,616.606 1862.35,464.859 1808.25,400.17L1575.32,265.853C1501.32,230.363 1323.39,166.525 1203.64,195.088C1053.94,230.792 1013.42,106.936 787.597,84.389C561.777,61.843 485.646,211.745 346.173,231.811C206.701,251.877 214.187,177.238 -13.641,139.178Z" style="fill:rgb(99,126,125);fill-rule:nonzero;stroke:rgb(146,193,190);stroke-width:1px;"/>
    </g>
    <g transform="matrix(1,0,0,0.856014,0,-7.97457)">
        <path d="M7.834,88.119C-177.075,59.275 -422.177,187.009 -521.614,254.481L-569.523,309.245L21.15,650.332C109.196,673.698 313.975,716.014 428.726,698.35C572.165,676.269 636.965,788.624 749.518,786.176C862.071,783.728 921.127,712.921 1106,677.298C1290.87,641.676 1384,762.895 1699.65,645.425C1952.17,551.449 1910.52,397.509 1858.13,332.286L1626.07,198.287C1552.04,163.029 1373.05,100.138 1249.39,130.637C1094.8,168.761 1058.93,43.136 829.147,22.853C599.368,2.57 514.856,156.094 371.418,178.175C227.979,200.255 238.97,124.173 7.834,88.119Z" style="fill:rgb(146,193,190);fill-rule:nonzero;stroke:rgb(146,193,190);stroke-width:1px;"/>
    </g>
</svg>
